# xmcd CD database file
#
# Track frame offsets:
#	150
#	20138
#	34903
#	55518
#	84275
#	100173
#	122423
#	143248
#	163115
#	183455
#	201023
#	223003
#	240530
#
# Disc length: 3421 seconds
#
# Revision: 4
# Processed by: cddbd v1.5PL3 Copyright (c) Steve Scherf et al.
# Submitted via: CDex 1.50
#
DISCID=ad0d5b0d
DTITLE=Gitarrenduo Saitensprung - Halbmond
DYEAR=1992
DGENRE=Jazz
TTITLE0=Hallo Anna
TTITLE1=Schmetterling
TTITLE2=Halbmond
TTITLE3=Forêt Di Bonifante
TTITLE4=Elfenwald
TTITLE5=Umarmen
TTITLE6=Daheim
TTITLE7=Aladin
TTITLE8=Ha Schee
TTITLE9=Zalü
TTITLE10=Sieta
TTITLE11=Kindergarten
TTITLE12=Schlaflied für den kleinen Wolf
EXTD=YEAR: 1992
EXTT0=
EXTT1=
EXTT2=
EXTT3=
EXTT4=
EXTT5=
EXTT6=
EXTT7=
EXTT8=
EXTT9=
EXTT10=
EXTT11=
EXTT12=
PLAYORDER=
